<?xml version="1.0" encoding="iso-8859-1"?>
<!-- Uploaded to: SVG Repo, www.svgrepo.com, Generator: SVG Repo Mixer Tools -->
<!DOCTYPE svg PUBLIC "-//W3C//DTD SVG 1.1//EN" "http://www.w3.org/Graphics/SVG/1.1/DTD/svg11.dtd">
<svg fill="#000000" version="1.1" id="Capa_1" xmlns="http://www.w3.org/2000/svg" xmlns:xlink="http://www.w3.org/1999/xlink" 
	 width="800px" height="800px" viewBox="0 0 411.501 411.501"
	 xml:space="preserve">
<g>
	<g>
		<path d="M324.58,118.829C324.58,53.306,271.272,0,205.75,0C140.229,0,86.921,53.305,86.921,118.829
			c0,32.282,12.958,61.583,33.928,83.022V374.09c0,3.693,2.308,6.994,5.771,8.267l35.987,13.187c0.004,0,0.004,0,0.008,0.004
			l42.076,15.416c0.98,0.357,2.008,0.538,3.031,0.538c0.004,0,0.004,0,0.004,0c1.074,0,2.148-0.198,3.168-0.59l74.121-28.606
			c3.396-1.311,5.635-4.571,5.635-8.214v-172.24C311.621,180.412,324.58,151.11,324.58,118.829z M205.75,17.604
			c55.817,0,101.225,45.406,101.225,101.225c0,55.816-45.406,101.226-101.225,101.226c-55.818,0-101.225-45.41-101.225-101.226
			C104.525,63.01,149.934,17.604,205.75,17.604z M138.455,367.94V216.691c5.781,3.982,11.935,7.466,18.391,10.388V374.68
			L138.455,367.94z M207.646,393.293l-33.196-12.164V233.439c9.979,2.734,20.466,4.218,31.302,4.218
			c12.267,0,24.103-1.87,35.243-5.335v148.099L207.646,393.293z M258.597,373.63V225.213c5.029-2.509,9.855-5.354,14.45-8.521
			v151.36L258.597,373.63z"/>
		<path d="M205.75,198.046c43.68,0,79.219-35.538,79.219-79.218c0-43.68-35.539-79.22-79.219-79.22
			c-43.68,0-79.219,35.54-79.219,79.22C126.532,162.508,162.07,198.046,205.75,198.046z M205.75,57.213
			c33.976,0,61.614,27.641,61.614,61.616c0,33.976-27.64,61.614-61.614,61.614c-33.975,0-61.615-27.638-61.615-61.614
			C144.135,84.854,171.774,57.213,205.75,57.213z"/>
	</g>
</g>
</svg>